<svg width="24" height="24" viewBox="0 0 24 24" fill="none" xmlns="http://www.w3.org/2000/svg">
    <path fill-rule="evenodd" clip-rule="evenodd" d="M2.48674 5.75636C2.25 6.41354 2.25 7.16628 2.25 8.67176L2.25 13.9762C2.25 15.2285 2.25 15.8546 2.4226 16.423C2.5754 16.9261 2.82592 17.3942 3.15981 17.8005C3.53697 18.2593 4.05795 18.6067 5.0999 19.3013L5.09992 19.3013L7.5624 20.943L7.56241 20.943C9.16619 22.0121 9.96808 22.5467 10.8348 22.7544C11.6008 22.938 12.3992 22.938 13.1652 22.7544C14.0319 22.5467 14.8338 22.0121 16.4376 20.943L18.9001 19.3013C19.942 18.6067 20.463 18.2593 20.8402 17.8005C21.1741 17.3942 21.4246 16.9261 21.5774 16.423C21.75 15.8546 21.75 15.2285 21.75 13.9762L21.75 8.67176C21.75 7.16628 21.75 6.41354 21.5133 5.75636C21.304 5.17547 20.9631 4.6509 20.5172 4.22374C20.0129 3.7405 19.325 3.43479 17.9493 2.82336L14.5993 1.33448C13.6421 0.909071 13.1635 0.696368 12.666 0.612361C12.2251 0.537907 11.7749 0.537907 11.334 0.612361C10.8365 0.696368 10.3579 0.909071 9.40073 1.33448L6.05073 2.82336C4.675 3.43479 3.98714 3.7405 3.48275 4.22374C3.03691 4.6509 2.69601 5.17547 2.48674 5.75636ZM16.0303 10.0304C16.3232 9.73749 16.3232 9.26262 16.0303 8.96973C15.7374 8.67683 15.2626 8.67683 14.9697 8.96972L11 12.9394L9.53033 11.4697C9.23743 11.1768 8.76256 11.1768 8.46967 11.4697C8.17677 11.7626 8.17677 12.2375 8.46967 12.5304L10.4697 14.5304C10.7626 14.8233 11.2374 14.8233 11.5303 14.5304L16.0303 10.0304Z" fill="var(--secondary-color)"/>
</svg>
