<svg width="24" height="24" viewBox="0 0 24 24" fill="none" xmlns="http://www.w3.org/2000/svg">
    <path
          d="M9.25 2.25C6.44974 2.25 5.04961 2.25 3.98005 2.79497C3.03924 3.27433 2.27433 4.03924 1.79497 4.98005C1.25 6.04961 1.25 7.44974 1.25 10.25V13.75C1.25 16.5503 1.25 17.9504 1.79497 19.02C2.27433 19.9608 3.03924 20.7257 3.98005 21.205C5.04961 21.75 6.44974 21.75 9.25 21.75H14.75C17.5503 21.75 18.9504 21.75 20.02 21.205C20.9608 20.7257 21.7257 19.9608 22.205 19.02C22.75 17.9504 22.75 16.5503 22.75 13.75V10.25C22.75 7.44974 22.75 6.04961 22.205 4.98005C21.7257 4.03924 20.9608 3.27433 20.02 2.79497C18.9504 2.25 17.5503 2.25 14.75 2.25H9.25Z"
          fill="var(--secondary-color)"/>
    <path fill-rule="evenodd" clip-rule="evenodd"
          d="M5.37604 7.58393C5.60581 7.23929 6.07146 7.14616 6.4161 7.37592L7.41605 8.04255C7.41607 8.04256 7.41609 8.04257 7.4161 8.04259C9.06638 9.14277 9.76342 9.59808 10.4855 9.81565C11.4733 10.1133 12.5269 10.1133 13.5146 9.81565C14.2367 9.59808 14.9338 9.14277 16.5841 8.04259L17.5841 7.37592C17.9287 7.14616 18.3944 7.23929 18.6241 7.58393C18.8539 7.92858 18.7608 8.39423 18.4161 8.624L17.4161 9.29066C17.3769 9.31679 17.3381 9.34265 17.2997 9.36825C15.8014 10.3673 14.9098 10.9619 13.9473 11.2519C12.6774 11.6345 11.3228 11.6345 10.0528 11.2519C9.09034 10.9619 8.19871 10.3673 6.70042 9.36825C6.66203 9.34265 6.62325 9.31679 6.58405 9.29066L5.58405 8.624C5.23941 8.39423 5.14628 7.92858 5.37604 7.58393Z"
          fill="var(--text-light)"/>
</svg>
